PathFileType	4	(X/Y/Z)	C:/Users/beibeiliu/ov580/test_trc\sequence.11_training_dense_right.trc
DataRate	CameraRate	NumFrames	NumMarkers	Units	OrigDataRate	OrigDataStartFrame	OrigNumFrames
120	120	16	19	mm	120	150	398
Frame#	Time	ThumbCMC			ThumbMCP			ThumbIP			ThumbTip			IndexMCP			IndexPIP			IndexTip			MiddleMCP			MiddlePIP			MiddleTip			RingMCP			RingPIP			RingTip			PinkyMCP			PinkyPIP			PinkyTip			BackHand1			BackHand2			BackHand3	
		X0	Y0	Z0	X1	Y1	Z1	X2	Y2	Z2	X3	Y3	Z3	X4	Y4	Z4	X5	Y5	Z5	X6	Y6	Z6	X7	Y7	Z7	X8	Y8	Z8	X9	Y9	Z9	X10	Y10	Z10	X11	Y11	Z11	X12	Y12	Z12	X13	Y13	Z13	X14	Y14	Z14	X15	Y15	Z15	X16	Y16	Z16	X17	Y17	Z17	X18	Y18	Z18	
149	1.24167	226.697	-16.4758	12.389	208.392	5.05689	-3.38224	179.047	6.93369	-12.7797	160.788	-5.40781	0.340349	192.822	-22.6724	-42.8504	186.705	-17.0251	-61.245	181.021	-16.0951	-81.6136	172.333	-31.2493	-35.9843	160.33	-30.9703	-54.8472	145.222	-37.8208	-74.802	157.728	-32.4775	-21.4132	143.45	-33.0386	-33.2755	127.461	-39.0292	-50.9116	143.337	-31.5974	1.80719	128.256	-31.1039	-3.37252	112.118	-34.7501	-11.6043	182.606	-47.0229	9.62566	193.697	-56.8442	29.9428	210.787	-46.5121	4.6789	
150	1.25	225.614	-16.5507	13.8622	204.378	5.36923	-4.57146	180.174	6.54281	-9.58487	156.315	-3.82295	-0.777896	195.038	-20.7116	-42.2991	189.657	-16.1415	-61.4721	181.452	-13.3172	-86.585	168.712	-31.0465	-36.0227	156.18	-31.7724	-55.1395	142.921	-37.6235	-74.3302	156.426	-32.2136	-17.7015	140.038	-34.6031	-34.9398	130.372	-36.7494	-47.6994	145.99	-31.0508	3.28559	131.353	-30.4369	-0.497357	112.463	-35.2991	-7.41798	181.791	-46.2335	7.98463	194.714	-55.2722	27.8391	208.528	-45.6185	5.22198	
151	1.25833	224.143	-13.9586	11.8636	204.22	9.49988	-3.38167	177.573	4.30542	-8.69775	157.523	-3.61235	1.27538	194.822	-18.115	-41.0336	184.325	-14.3003	-59.039	176.743	-12.4237	-84.1847	168.614	-29.7886	-32.1152	157.068	-30.5767	-52.0826	146.047	-35.3449	-71.911	150.667	-33.415	-18.0175	138.181	-34.8955	-32.3251	127.507	-36.2084	-44.0838	143.228	-32.2785	9.00389	127.602	-30.6877	0.375107	109.891	-34.2873	-5.50054	182.325	-44.461	9.93201	193.514	-55.6103	33.9256	208.889	-43.2982	6.69199	
152	1.26667	220.657	-12.3075	15.9731	203.222	11.418	-1.37543	172.885	9.61867	-10.1696	154.005	-1.56836	-0.162615	189.556	-16.3232	-39.0136	182.749	-11.8951	-59.6871	174.914	-10.2315	-80.5587	164.616	-29.0403	-35.525	155.961	-28.3533	-53.2644	140.403	-36.4426	-69.1411	153.121	-31.3188	-14.8122	141.932	-31.4638	-29.9217	128.388	-35.3828	-44.5927	143.897	-30.3881	7.2715	123.781	-31.262	3.11101	112.454	-35.4253	-3.73199	178.593	-45.5615	13.2353	197.914	-50.6834	33.0367	210.64	-39.9472	8.98556	
153	1.275	221.687	-6.9823	18.5732	199.803	14.9829	-1.26711	171.096	11.1098	-9.71075	150.484	1.52572	0.318581	191.504	-11.673	-41.4209	181.847	-9.24586	-59.3227	172.906	-8.18659	-78.4177	169.429	-25.6463	-31.7827	152.767	-28.0142	-52.5528	142.424	-34.5975	-72.7652	152.711	-31.4576	-18.1652	138.595	-32.8468	-30.5925	125.645	-38.4096	-43.107	142.594	-32.378	7.6391	125.051	-32.9796	2.22137	110.652	-39.2683	-7.13256	179.794	-42.075	12.1317	195.111	-50.181	29.7975	209.476	-36.7324	10.6768	
154	1.28333	216.473	-0.735788	20.557	193.688	18.9934	1.00163	167.782	13.4941	-5.353	146.832	-0.451263	1.71559	185.872	-7.54199	-40.8446	179.964	-3.93305	-60.2186	170.141	-3.28876	-78.5087	166.166	-24.3166	-31.9785	154.61	-26.1053	-48.8737	143.113	-33.5831	-71.9636	153.674	-31.273	-13.7036	138.343	-34.8655	-26.1887	129.071	-39.0775	-44.165	143.004	-33.7418	10.3973	128.329	-35.7398	4.13806	115.325	-45.1653	-2.66824	183.12	-36.8659	14.2623	195.548	-46.1862	34.0723	210.83	-30.7437	8.81873	
155	1.29167	210.984	6.35863	23.5929	185.686	24.6468	3.72272	159.871	16.1988	-4.7193	145.015	-1.26503	3.34433	182.672	-3.03587	-37.8552	172.902	0.801798	-57.9194	169.6	2.87796	-74.3621	166.524	-20.8815	-34.3062	152.529	-26.4998	-50.8784	143.499	-32.79	-72.1179	152.252	-31.104	-11.397	138.897	-36.7599	-29.0262	128.302	-41.6395	-46.6279	144.591	-35.9241	10.3555	126.688	-41.0181	2.48312	115.451	-50.8145	-7.18076	179.342	-36.4294	12.6833	195.957	-40.5415	34.6314	207.777	-23.5191	12.6421	
156	1.3	202.783	16.1564	23.2046	175.885	29.053	9.09786	153.182	17.9696	-0.363543	136.492	0.680318	0.727505	180.056	3.86142	-36.9059	170.423	5.64143	-57.9392	164.235	7.56371	-74.2785	163.557	-19.4313	-32.3215	156.929	-20.1224	-49.7819	143.486	-32.2117	-72.5895	153.665	-30.3372	-19.1874	141.246	-35.321	-35.5565	131.83	-40.7987	-51.1362	144.296	-37.988	7.88448	131.588	-42.4924	-3.63857	119.648	-57.0889	-12.8658	179.794	-30.9519	11.9948	197.437	-32.997	34.197	205.65	-17.5646	11.6914	
157	1.30833	192.079	25.2577	28.2708	161.575	29.9675	6.89184	141.716	16.8844	-4.36732	130.394	-4.1469	-2.79153	174.9	9.07982	-32.2805	168.204	14.2073	-54.9116	160.559	14.3708	-76.7688	164.511	-14.14	-36.0821	154.825	-20.0012	-54.4492	148.407	-28.9924	-75.4644	154.396	-30.6589	-17.2967	147.485	-34.097	-36.0753	138.397	-42.5469	-53.1425	147.379	-40.541	3.60555	137.268	-45.4848	-9.44793	129.618	-57.5786	-19.2326	182.953	-27.0147	15.9649	199.012	-26.967	34.3497	202.564	-4.36797	13.406	
158	1.31667	177.051	29.1771	26.6605	149.473	34.5058	11.3512	133.407	18.0686	-4.29161	120.679	-2.83826	-11.7787	170.121	15.4751	-34.322	164.258	21.5383	-51.6789	158.239	19.5636	-74.7594	165.999	-10.334	-33.3594	160.627	-13.9595	-54.2932	156.564	-22.6579	-76.9423	160.007	-26.316	-21.3246	153.92	-30.1927	-40.0893	149.806	-35.9146	-63.4354	153.202	-41.3727	-1.32594	145.24	-47.1002	-18.5725	140.99	-60.2682	-27.5145	180.387	-21.879	10.9087	193.494	-17.5785	33.7153	195.852	5.92435	15.2421	
159	1.325	166.295	33.9448	33.1438	141.158	30.7703	12.428	127.473	22.2514	-3.39433	115.89	2.40584	-19.1605	165.531	24.5338	-32.9201	159.982	26.3496	-49.4998	156.81	31.1379	-73.5396	168.411	-2.24778	-32.3156	165.158	-8.12255	-59.7087	165.321	-12.0082	-77.515	164.117	-19.1302	-22.9101	161.932	-26.0228	-45.5503	160.103	-31.7743	-63.1361	160.008	-35.0278	-5.41085	155.955	-47.0563	-21.8523	155.392	-53.9417	-38.4616	181.197	-17.0991	15.62	190.177	-15.7308	35.4267	189.893	8.4681	17.1778	
160	1.33333	156.929	31.4156	31.7153	130.161	35.9005	14.4744	117.5	29.996	-5.69672	108.266	14.824	-24.4578	161.698	32.016	-29.929	156.823	33.6517	-48.9917	155.62	38.6836	-74.2427	169.155	7.75409	-36.6063	168.979	6.52612	-59.3932	171.801	1.10244	-78.019	169.097	-13.5961	-28.3573	168.144	-16.3758	-47.6378	169.329	-22.0304	-68.3161	166.158	-33.9172	-10.0563	164.38	-38.3495	-24.6517	167.419	-48.9505	-39.0601	181.968	-8.15236	16.0467	189.144	-9.02926	35.2009	183.623	20.0397	22.4733	
161	1.34167	148.363	34.3492	37.0315	123.964	35.1587	14.9164	112.533	32.0602	-7.74851	103.417	25.645	-21.1711	157.951	37.8475	-26.8826	154.041	40.1021	-48.2744	152.214	48.2817	-71.6817	168.943	17.5021	-35.7106	170.73	12.9002	-54.4172	175.677	18.4912	-77.1393	171.6	-6.51799	-27.5058	173.647	-8.24137	-48.9844	176.233	-9.71549	-65.3385	171.57	-26.3831	-14.1258	173.236	-34.8196	-27.1571	179.684	-41.1047	-42.6053	180.784	1.22576	12.5596	188.607	0.367033	40.5096	179.229	26.5711	25.7632	
162	1.35	141.856	33.3611	36.1028	117.947	34.2316	17.4363	108.329	32.7646	-2.4024	98.3256	29.6204	-18.5675	152.991	41.7328	-23.6209	150.636	47.2116	-44.9535	146.948	58.4213	-61.8891	169.296	24.9288	-34.3311	171.406	28.846	-53.5355	179.147	34.3266	-78.1334	174.322	5.49003	-29.3567	177.779	6.45168	-47.9981	182.892	7.16638	-69.8454	179.913	-19.4245	-13.1514	182.232	-21.7129	-31.7248	190.809	-25.1243	-48.1871	182.064	4.64798	11.1505	188.377	5.08516	38.5443	170.258	32.0773	24.4636	
163	1.35833	133.57	30.436	39.4767	115.02	29.2521	15.3091	104.445	29.8651	-4.35162	92.3186	31.2242	-17.5965	144.717	52.0354	-25.0072	144.108	56.6918	-42.4094	144.462	68.5879	-63.0287	166.82	37.4058	-30.3276	173.043	39.8776	-51.6489	176.547	50.3936	-70.722	179.147	16.2205	-28.97	184.38	18.6869	-48.2952	189.253	23.1254	-64.4481	186.276	-5.39458	-18.214	190.244	-5.30783	-34.3555	203.103	-3.29612	-49.1159	181.216	16.4571	14.135	186.24	14.1729	37.3721	164.896	33.8104	30.4526	
164	1.36667	132.052	23.3549	35.9967	112.44	22.141	15.08	100.241	27.0635	-5.4467	90.3119	27.0975	-15.2234	143.486	52.8376	-22.0108	136.514	64.9202	-41.1321	135.285	74.8663	-55.2285	164.668	46.7078	-30.5796	168.613	54.8809	-49.3161	177.492	67.5232	-68.3799	180.793	29.1099	-28.3048	186.391	34.9296	-46.6103	193.018	44.9281	-63.2745	192.87	8.23887	-17.2843	200.711	7.70875	-31.7125	212.113	17.5869	-47.13	182.648	23.2128	14.5548	184.707	17.2845	41.7405	159.695	34.704	31.4258	
